<svg width="1181" height="251" viewBox="0 0 1181 251" fill="none" xmlns="http://www.w3.org/2000/svg">
  <path d="M0 105v93c0 3.18.29 6.35 2.53 8.6l42.25 42.24C48.56 252.62 55 250.34 55 245v-93c0-3.19-1.05-6.36-3.31-8.62l-42.6-42.6C5.28 96.97-.02 99.64 0 105Zm74-49v132c0 3.18.79 6.14 3.03 8.38l42.25 42.24c3.77 3.78 10.72.73 10.72-4.62V103c0-3.18-1.55-6.5-3.8-8.76L83.56 51.62C79.8 47.84 74 50.66 74 56Zm74-50v155c0 3.18.84 6.6 3.08 8.85l54.99 54.98c3.78 3.78 9.93 1.02 9.93-4.33v-155c0-3.18-.76-6.1-3.01-8.36L157.62 1.77C153.84-2 148 .66 148 6Z" fill="#1E212A" />
  <path d="M148.511 6.00488V161.005C148.515 164.182 149.343 167.602 151.59 169.848L206.575 224.833C210.353 228.611 216.504 225.847 216.511 220.505L216.511 65.5049C216.515 62.3171 215.75 59.399 213.496 57.1449L158.125 1.77432C154.343 -2.00801 148.504 0.655866 148.511 6.00488Z" fill="#1E212A"/>
  <path d="M74.5107 56.0049V188.005C74.5153 191.182 75.2966 194.137 77.5428 196.383L119.783 238.622C123.559 242.399 130.503 239.346 130.511 234.005V103.005C130.515 99.8163 128.954 96.4967 126.699 94.242L84.0815 51.6243C80.2988 47.8415 74.5031 50.6553 74.5107 56.0049Z" fill="#1E212A"/>
  <path d="M349.679 199.357H300.719V61.5013H349.679C393.455 61.5013 419.951 89.5333 419.951 129.661C419.951 169.789 392.495 199.357 349.679 199.357ZM329.903 86.6533V174.205H348.143C375.599 174.205 389.999 158.269 389.999 129.661C389.999 102.205 375.599 86.6533 348.143 86.6533H329.903ZM466.907 73.0213C466.907 82.0453 459.611 88.7653 449.051 88.7653C438.683 88.7653 431.387 82.0453 431.387 73.0213C431.387 63.6133 438.683 56.8933 449.051 56.8933C459.611 56.8933 466.907 63.6133 466.907 73.0213ZM462.683 199.357H435.995V96.8293H462.683V199.357ZM511.2 149.629V199.357H484.512V96.8293H509.088V116.605C516.576 103.549 532.512 95.6773 549.024 95.6773V123.325C526.368 121.597 511.2 126.973 511.2 149.629ZM647.559 166.525C647.559 188.029 631.239 201.277 602.055 201.277C572.871 201.277 556.551 187.261 554.439 164.413H579.975C580.167 174.973 589.191 181.693 602.439 181.693C612.807 181.693 620.679 178.429 620.679 171.133C620.679 164.605 616.455 161.917 606.663 159.997L588.231 156.541C569.799 153.277 558.663 143.101 558.663 127.165C558.663 108.157 574.983 94.9093 600.519 94.9093C626.247 94.9093 643.911 108.541 645.831 130.621H620.295C619.335 120.637 611.847 114.493 600.519 114.493C590.727 114.493 584.199 118.141 584.199 124.669C584.199 130.813 588.423 133.309 597.639 135.037L617.415 138.685C637.383 142.525 647.559 151.741 647.559 166.525ZM725.541 173.437V196.669C719.013 199.933 712.869 201.277 704.997 201.277C683.877 201.277 670.629 189.181 670.629 166.141V119.677H649.893V96.8293H670.629V66.4933H697.125V96.8293H726.501V119.677H697.125V159.997C697.125 171.901 702.501 176.701 712.101 176.701C717.093 176.701 721.701 175.549 725.541 173.437ZM801.933 199.357V186.685C795.213 196.285 785.037 201.277 771.021 201.277C749.709 201.277 735.501 188.797 735.501 169.597C735.501 149.629 751.629 138.877 781.581 138.877C787.341 138.877 792.333 139.261 798.669 140.029V133.885C798.669 122.365 792.141 115.645 781.005 115.645C769.485 115.645 762.573 122.365 761.613 133.885H737.613C739.149 110.269 756.237 94.9093 781.005 94.9093C807.885 94.9093 823.629 109.693 823.629 134.845V199.357H801.933ZM760.653 168.829C760.653 177.469 766.797 182.845 776.781 182.845C790.413 182.845 798.669 175.357 798.669 163.453V156.157C792.333 155.197 787.917 154.813 783.309 154.813C768.141 154.813 760.653 159.613 760.653 168.829ZM871.395 149.629V199.357H844.707V96.8293H869.283V116.605C876.771 103.549 892.707 95.6773 909.219 95.6773V123.325C886.563 121.597 871.395 126.973 871.395 149.629ZM991.469 173.437V196.669C984.941 199.933 978.797 201.277 970.925 201.277C949.805 201.277 936.557 189.181 936.557 166.141V119.677H915.821V96.8293H936.557V66.4933H963.053V96.8293H992.429V119.677H963.053V159.997C963.053 171.901 968.429 176.701 978.029 176.701C983.021 176.701 987.629 175.549 991.469 173.437ZM1049.1 201.085C1018.38 201.085 997.835 179.773 997.835 147.709C997.835 117.181 1019.15 94.9093 1048.71 94.9093C1081.16 94.9093 1102.67 121.213 1097.87 154.621H1025.1C1026.83 171.325 1034.89 180.541 1048.52 180.541C1060.23 180.541 1068.11 174.781 1071.18 164.605H1097.67C1091.91 187.837 1074.06 201.085 1049.1 201.085ZM1048.14 114.493C1035.66 114.493 1027.79 122.557 1025.48 137.725H1069.64C1068.87 123.517 1060.81 114.493 1048.14 114.493ZM1140.51 149.629V199.357H1113.82V96.8293H1138.4V116.605C1145.89 103.549 1161.82 95.6773 1178.33 95.6773V123.325C1155.68 121.597 1140.51 126.973 1140.51 149.629Z" fill="#1E212A"/>
</svg>