<svg fill="none" xmlns="http://www.w3.org/2000/svg" viewBox="0 0 572 91">
  <path d="M91.49 45.4v-4.35L56.05 43.1a2.24 2.24 0 0 1-1.91-3.58l19.4-29.55L66 5.6 50.05 37.31a2.24 2.24 0 0 1-4.01-.01L30.09 5.6l-7.54 4.36 19.49 29.67a2.24 2.24 0 0 1-2 3.46L4.61 41.07v8.7l35.43-2.04a2.24 2.24 0 0 1 1.92 3.59L22.55 80.86l3.78 2.18 3.77 2.17 15.95-31.7a2.24 2.24 0 0 1 4.01 0L66 85.22l3.77-2.17.13-.07 3.65-2.11-19.48-29.67a2.24 2.24 0 0 1 1.99-3.46l35.43 2.04V45.4Zm4.5-6.72v13.46h-.01v.12a2.24 2.24 0 0 1-2.37 2.11l-33.37-1.92 18.34 27.93.08.12a2.24 2.24 0 0 1-.83 3.05l-5.7 3.3-.12.06-5.82 3.37-.12.06c-1.1.56-2.45.11-3-1L48.04 59.5l-15 29.8-.08.16a2.24 2.24 0 0 1-3.06.82l-5.83-3.37-5.82-3.36-.11-.07a2.24 2.24 0 0 1-.64-3.1l18.34-27.93-33.2 1.91c-.1.02-.19.02-.29.02-1.24 0-2.24-1-2.24-2.24V38.56a2.24 2.24 0 0 1 2.37-2.12l33.36 1.92-18.34-27.92-.07-.12a2.24 2.24 0 0 1 .83-3.05L29.8.6a2.24 2.24 0 0 1 3.24.86l15.02 29.85L63.07 1.47l.06-.1A2.23 2.23 0 0 1 66.2.54l11.65 6.73.12.07a2.24 2.24 0 0 1 .64 3.1L60.25 38.36l33.2-1.9.3-.03c1.23 0 2.24 1.01 2.24 2.25ZM145.94 68.75c-4.13 0-7.8-1.01-11.03-3.03a21.1 21.1 0 0 1-7.63-8.44 27.4 27.4 0 0 1-2.75-12.53c0-4.77.92-8.96 2.75-12.56a21.05 21.05 0 0 1 7.63-8.47 20.36 20.36 0 0 1 11.03-3.03 20.26 20.26 0 0 1 18.65 11.5c1.86 3.6 2.78 7.79 2.78 12.56 0 4.73-.92 8.9-2.78 12.53a21.1 21.1 0 0 1-7.62 8.44 20.26 20.26 0 0 1-11.03 3.03Zm0-6.34c2.69 0 5.12-.68 7.31-2.03a14.35 14.35 0 0 0 5.22-6c1.29-2.65 1.94-5.86 1.94-9.63 0-3.8-.65-7.01-1.94-9.66a14.1 14.1 0 0 0-5.22-6 13.46 13.46 0 0 0-7.31-2.06c-2.67 0-5.1.69-7.28 2.06a14.1 14.1 0 0 0-5.22 6c-1.3 2.65-1.94 5.87-1.94 9.66 0 3.77.65 6.98 1.94 9.63a14.35 14.35 0 0 0 5.22 6 13.56 13.56 0 0 0 7.28 2.03Zm26.76 18.65V35h6.47v4.75h.09a9.79 9.79 0 0 1 2.6-3 11.5 11.5 0 0 1 3.52-1.78c1.32-.42 2.68-.63 4.1-.63 2.85 0 5.34.73 7.47 2.2a14.19 14.19 0 0 1 5 6.02 20.73 20.73 0 0 1 1.8 8.94c0 3.4-.59 6.39-1.77 8.97a14.46 14.46 0 0 1-5 6.03 13.21 13.21 0 0 1-7.53 2.16c-1.42 0-2.76-.21-4.03-.63a10.68 10.68 0 0 1-6.04-5h-.09v18.03h-6.6Zm15.4-18.1c1.8 0 3.36-.43 4.69-1.3a8.85 8.85 0 0 0 3.13-3.88c.77-1.7 1.15-3.8 1.15-6.28 0-2.5-.38-4.6-1.16-6.31-.75-1.71-1.79-3-3.12-3.88A8.35 8.35 0 0 0 188.1 40c-1.87 0-3.5.48-4.9 1.44a9.25 9.25 0 0 0-3.22 4 15 15 0 0 0-1.13 6.06c0 2.3.38 4.3 1.13 6.03a9.47 9.47 0 0 0 3.22 4.03 8.6 8.6 0 0 0 4.9 1.4Zm34.6 5.79c-3.27 0-6.08-.74-8.43-2.22a14.76 14.76 0 0 1-5.4-6.1 20.26 20.26 0 0 1-1.88-8.87c0-3.37.65-6.35 1.97-8.94a15.24 15.24 0 0 1 5.43-6.12 14.31 14.31 0 0 1 7.97-2.25c2.33 0 4.44.42 6.31 1.25a13.8 13.8 0 0 1 4.88 3.56 15.9 15.9 0 0 1 3.12 5.44c.73 2.1 1.1 4.44 1.1 7v1.78h-27.81v-5h24.34l-2.9 1.53c0-2.04-.37-3.81-1.1-5.31a8 8 0 0 0-3.13-3.5 8.78 8.78 0 0 0-4.75-1.25 8.26 8.26 0 0 0-7.84 4.75c-.73 1.5-1.1 3.27-1.1 5.31v2.85c0 2.08.37 3.92 1.1 5.53a8.63 8.63 0 0 0 3.16 3.72c1.4.9 3.08 1.34 5.06 1.34 1.44 0 2.7-.22 3.81-.66a7.68 7.68 0 0 0 2.75-1.87c.73-.8 1.25-1.71 1.56-2.75h6.35c-.4 2.12-1.28 4-2.66 5.62a14.06 14.06 0 0 1-5.12 3.78c-2.05.92-4.3 1.38-6.78 1.38ZM249.13 49v19h-6.6V35H249v8.19h-1.53c1.09-2.96 2.59-5.17 4.5-6.63a11.2 11.2 0 0 1 7-2.22c2.28 0 4.3.5 6.1 1.5 1.81.98 3.24 2.44 4.28 4.38s1.56 4.34 1.56 7.22V68h-6.6V48.25c0-2.65-.63-4.64-1.9-5.97-1.25-1.35-3.02-2.03-5.31-2.03-1.5 0-2.85.3-4.06.9a6.68 6.68 0 0 0-2.85 2.85c-.7 1.3-1.06 2.96-1.06 5Zm25.04 19 16.9-46.56h8.38L316.22 68h-7.53l-8.97-26.25-2.37-7.31c-.86-2.65-1.88-5.93-3.06-9.85h1.96a598.51 598.51 0 0 1-5.46 17.16L281.54 68h-7.38Zm9.38-12.1V50h23.34v5.9h-23.34Zm42.6-34.46V68h-6.6V21.44h6.6ZM348.87 35v5.44h-19.13V35h19.13Zm-13.32-9h6.6v33.28c0 1.21.25 2.06.75 2.56.52.48 1.43.72 2.75.72h3.21V68h-4.16c-3.1 0-5.4-.65-6.9-1.94-1.5-1.31-2.25-3.29-2.25-5.94V26Zm31.1 42.75c-3.27 0-6.08-.74-8.43-2.22a14.77 14.77 0 0 1-5.4-6.1 20.26 20.26 0 0 1-1.88-8.87c0-3.37.65-6.35 1.96-8.94a15.24 15.24 0 0 1 5.44-6.12 14.32 14.32 0 0 1 7.97-2.25c2.33 0 4.44.42 6.31 1.25a13.8 13.8 0 0 1 4.88 3.56 15.9 15.9 0 0 1 3.12 5.44c.73 2.1 1.1 4.44 1.1 7v1.78H353.9v-5h24.35l-2.9 1.53c0-2.04-.37-3.81-1.1-5.31a8 8 0 0 0-3.13-3.5 8.78 8.78 0 0 0-4.75-1.25 8.26 8.26 0 0 0-7.84 4.75c-.73 1.5-1.1 3.27-1.1 5.31v2.85c0 2.08.37 3.92 1.1 5.53a8.63 8.63 0 0 0 3.16 3.72c1.4.9 3.08 1.34 5.06 1.34 1.44 0 2.7-.22 3.81-.66a7.68 7.68 0 0 0 2.75-1.87c.73-.8 1.25-1.71 1.56-2.75h6.35c-.4 2.12-1.28 4-2.66 5.62a14.06 14.06 0 0 1-5.12 3.78c-2.05.92-4.3 1.38-6.79 1.38Zm19.83-.75V35h6.3v5.34h.13a8.6 8.6 0 0 1 2.85-4.22 8.1 8.1 0 0 1 5.12-1.53c.5 0 .96.02 1.38.07.44.02.78.05 1.03.09v6.16c-.25-.07-.7-.13-1.35-.2-.64-.07-1.35-.12-2.12-.12-1.23 0-2.37.28-3.4.85a6.01 6.01 0 0 0-2.44 2.6 9.69 9.69 0 0 0-.91 4.46V68h-6.6Zm27.57-19v19h-6.6V35h6.47v8.19h-1.53c1.09-2.96 2.59-5.17 4.5-6.63a11.2 11.2 0 0 1 7-2.22c2.27 0 4.3.5 6.1 1.5 1.8.98 3.24 2.44 4.28 4.38s1.56 4.34 1.56 7.22V68h-6.6V48.25c0-2.65-.63-4.64-1.9-5.97-1.25-1.35-3.02-2.03-5.31-2.03-1.5 0-2.86.3-4.07.9a6.68 6.68 0 0 0-2.84 2.85c-.7 1.3-1.06 2.96-1.06 5Zm38.32 19.53c-2.19 0-4.15-.37-5.88-1.12a9.3 9.3 0 0 1-4.06-3.35 9.6 9.6 0 0 1-1.5-5.5c0-1.87.36-3.41 1.06-4.62a8.1 8.1 0 0 1 2.94-2.88c1.23-.7 2.63-1.24 4.19-1.6a39.8 39.8 0 0 1 4.84-.84l4.9-.62a6.48 6.48 0 0 0 2.57-.75c.52-.35.78-.93.78-1.72v-.28a5.1 5.1 0 0 0-3.06-4.78c-1-.48-2.2-.72-3.6-.72-1.39 0-2.63.23-3.71.69a6.48 6.48 0 0 0-2.56 1.9c-.63.8-.98 1.7-1.07 2.72h-6.47c.1-2.1.74-3.96 1.91-5.56a11.74 11.74 0 0 1 4.81-3.78 17.42 17.42 0 0 1 7.19-1.38c2.02 0 3.84.26 5.47.78 1.62.53 3 1.28 4.12 2.26a9.22 9.22 0 0 1 2.6 3.46c.6 1.36.9 2.87.9 4.53V68h-6.5v-4.69h-.12c-.46.9-1.08 1.74-1.88 2.53a8.9 8.9 0 0 1-3.12 1.94c-1.27.5-2.86.75-4.75.75Zm1.34-5.31c1.94 0 3.53-.34 4.78-1.03a6.82 6.82 0 0 0 2.82-2.78 7.7 7.7 0 0 0 .93-3.75v-3.88c-.23.19-.6.37-1.12.53-.5.15-1.12.3-1.85.44l-2.37.4c-.85.15-1.7.28-2.56.38-1.21.17-2.34.45-3.38.84-1.04.38-1.88.91-2.53 1.6-.62.69-.94 1.6-.94 2.72 0 .94.25 1.75.75 2.44.5.66 1.22 1.18 2.16 1.56.94.35 2.04.53 3.31.53ZM491.13 35v5.44H472V35h19.13Zm-13.31-9h6.59v33.28c0 1.21.25 2.06.75 2.56.52.48 1.44.72 2.75.72H491.13V68h-4.16c-3.1 0-5.4-.65-6.9-1.94-1.5-1.31-2.25-3.29-2.25-5.94V26Zm17.57 42V35h6.59v33h-6.6Zm3.28-38.69a4.15 4.15 0 0 1-2.97-1.15 3.91 3.91 0 0 1-1.19-2.88 4.1 4.1 0 0 1 4.16-4.06c1.16 0 2.15.4 2.97 1.19a3.8 3.8 0 0 1 1.22 2.87c0 1.13-.41 2.08-1.22 2.88a4.15 4.15 0 0 1-2.97 1.15ZM518.08 68l-12.56-33h7.06l6.56 18.1c.6 1.7 1.18 3.41 1.72 5.12.57 1.69 1.12 3.38 1.66 5.1h-1.6l1.63-5.1c.54-1.71 1.1-3.42 1.69-5.13L530.7 35h6.97l-12.6 33h-7Zm36.04.75c-3.27 0-6.08-.74-8.44-2.22a14.77 14.77 0 0 1-5.4-6.1 20.26 20.26 0 0 1-1.88-8.87c0-3.37.66-6.35 1.97-8.94a15.24 15.24 0 0 1 5.44-6.12 14.32 14.32 0 0 1 7.97-2.25c2.33 0 4.44.42 6.31 1.25a13.8 13.8 0 0 1 4.88 3.56 15.9 15.9 0 0 1 3.12 5.44c.73 2.1 1.1 4.44 1.1 7v1.78h-27.82v-5h24.35l-2.91 1.53c0-2.04-.36-3.81-1.1-5.31a8 8 0 0 0-3.12-3.5 8.78 8.78 0 0 0-4.75-1.25A8.26 8.26 0 0 0 546 44.5c-.73 1.5-1.1 3.27-1.1 5.31v2.85c0 2.08.37 3.92 1.1 5.53a8.64 8.64 0 0 0 3.15 3.72c1.4.9 3.09 1.34 5.07 1.34 1.43 0 2.7-.22 3.8-.66a7.68 7.68 0 0 0 2.76-1.87c.73-.8 1.25-1.71 1.56-2.75h6.34c-.4 2.12-1.28 4-2.65 5.62a14.07 14.07 0 0 1-5.13 3.78c-2.04.92-4.3 1.38-6.78 1.38Z"/>
</svg>
